<svg xmlns="http://www.w3.org/2000/svg" viewBox="0 0 64 64" width="64" height="64">
  <rect width="64" height="64" rx="12" fill="#b3261e"/>
  <g transform="translate(8.045,50.796) scale(0.04777,-0.04777)">
    <path d="M76 41V-66H931V41H560V162H841V266H560V382H795V460C831 435 867 413 903 393C925 430 952 469 983 500C823 568 660 700 553 853H428C355 730 193 576 20 488C47 464 81 420 96 392C134 413 172 437 208 462V382H434V266H157V162H434V41ZM496 736C555 655 652 564 756 488H245C349 565 440 655 496 736Z" fill="#ffffff"/>
  </g>
</svg>
